<mxfile host="Electron" modified="2023-11-21T11:26:14.664Z" agent="Mozilla/5.0 (Windows NT 10.0; Win64; x64) AppleWebKit/537.36 (KHTML, like Gecko) draw.io/21.2.1 Chrome/112.0.5615.87 Electron/24.1.2 Safari/537.36" etag="l1ew5G877HDVgNxPDh-w" version="21.2.1" type="device">
  <diagram id="C5RBs43oDa-KdzZeNtuy" name="Page-1">
    <mxGraphModel dx="1418" dy="828" grid="1" gridSize="10" guides="1" tooltips="1" connect="1" arrows="1" fold="1" page="1" pageScale="1" pageWidth="2336" pageHeight="1654" math="0" shadow="0">
      <root>
        <mxCell id="WIyWlLk6GJQsqaUBKTNV-0" />
        <mxCell id="WIyWlLk6GJQsqaUBKTNV-1" parent="WIyWlLk6GJQsqaUBKTNV-0" />
        <mxCell id="fcJVb3HREh7NScvAmxeq-0" value="" style="group" parent="WIyWlLk6GJQsqaUBKTNV-1" vertex="1" connectable="0">
          <mxGeometry x="40" y="40" width="490" height="220" as="geometry" />
        </mxCell>
        <mxCell id="fcJVb3HREh7NScvAmxeq-1" value="&lt;font color=&quot;#000000&quot; size=&quot;1&quot;&gt;&lt;b style=&quot;font-size: 14px&quot;&gt;Legend:&lt;br&gt;&lt;/b&gt;&lt;/font&gt;&lt;br&gt;&lt;br&gt;&lt;br&gt;&lt;font color=&quot;#0000ff&quot; style=&quot;font-size: 6px&quot;&gt;&lt;br&gt;&lt;/font&gt;&lt;span style=&quot;color: rgb(0 , 0 , 0)&quot;&gt;&lt;font style=&quot;font-size: 4px&quot;&gt;&amp;nbsp; &amp;nbsp;&lt;/font&gt;&amp;nbsp;In progress&amp;nbsp; &amp;nbsp; &amp;nbsp; &amp;nbsp; &amp;nbsp; &amp;nbsp; In validation&amp;nbsp; &amp;nbsp; &amp;nbsp; &amp;nbsp; &amp;nbsp; &amp;nbsp;Ready to use&lt;/span&gt;&lt;font color=&quot;#000000&quot;&gt;&amp;nbsp;&lt;br&gt;&lt;/font&gt;&lt;font color=&quot;#0000ff&quot;&gt;&lt;br&gt;&lt;br&gt;&lt;br&gt;&lt;br&gt;&amp;nbsp;attribute / method()&amp;nbsp; &amp;nbsp; &amp;nbsp; &amp;nbsp; New public attribute/method to be implemented&lt;/font&gt;&lt;br&gt;&lt;font color=&quot;#000000&quot;&gt;&amp;nbsp;&lt;/font&gt;&lt;font color=&quot;#000000&quot;&gt;attribute / method()&lt;span&gt; &lt;/span&gt;&amp;nbsp; &amp;nbsp; &amp;nbsp; &amp;nbsp;New/inherited public attribute/method that is implemented here&lt;br&gt;&lt;/font&gt;&lt;font color=&quot;#0000ff&quot;&gt;&amp;nbsp;_attribute /&amp;nbsp;&lt;/font&gt;&lt;font color=&quot;#0000ff&quot;&gt;_method()&amp;nbsp; &amp;nbsp; New protected method/attribute to be implemented&lt;/font&gt;&lt;br&gt;&lt;font color=&quot;#000000&quot;&gt;&amp;nbsp;_attribute / _method()&amp;nbsp; &amp;nbsp; New/inherited protected attribute/method that is implemented here&lt;br&gt;&lt;/font&gt;&lt;font color=&quot;#000000&quot;&gt;&lt;br&gt;&lt;br&gt;&lt;br&gt;&lt;br&gt;&lt;br&gt;&lt;/font&gt;" style="text;html=1;align=left;verticalAlign=top;whiteSpace=wrap;rounded=0;fontColor=#006600;strokeColor=#000000;shadow=1;fillColor=#ffffff;" parent="fcJVb3HREh7NScvAmxeq-0" vertex="1">
          <mxGeometry width="489.99999999999994" height="220" as="geometry" />
        </mxCell>
        <mxCell id="fcJVb3HREh7NScvAmxeq-2" value="Depends on" style="endArrow=block;html=1;labelPosition=right;verticalLabelPosition=middle;align=left;verticalAlign=middle;endFill=1;fontSize=12;" parent="fcJVb3HREh7NScvAmxeq-0" edge="1">
          <mxGeometry x="-1623.1249999999998" y="-2180" width="51.041666666666664" height="50" as="geometry">
            <mxPoint x="10.20802398989899" y="120.00301587301601" as="sourcePoint" />
            <mxPoint x="55.990852272727174" y="120.00301587301601" as="targetPoint" />
            <mxPoint x="98" as="offset" />
            <Array as="points">
              <mxPoint x="30.624999999999996" y="120" />
            </Array>
          </mxGeometry>
        </mxCell>
        <mxCell id="fcJVb3HREh7NScvAmxeq-3" value="Inherits from" style="endArrow=block;html=1;labelPosition=right;verticalLabelPosition=middle;align=left;verticalAlign=middle;endFill=0;fontSize=12;" parent="fcJVb3HREh7NScvAmxeq-0" edge="1">
          <mxGeometry x="-1623.1249999999998" y="-2180" width="51.041666666666664" height="50" as="geometry">
            <mxPoint x="10.20802398989899" y="132.3846031746034" as="sourcePoint" />
            <mxPoint x="55.990852272727174" y="132.3846031746034" as="targetPoint" />
            <mxPoint x="98" y="1" as="offset" />
          </mxGeometry>
        </mxCell>
        <mxCell id="fcJVb3HREh7NScvAmxeq-4" value="" style="swimlane;fontStyle=3;align=center;verticalAlign=top;childLayout=stackLayout;horizontal=1;startSize=26;horizontalStack=0;resizeParent=1;resizeLast=0;collapsible=1;marginBottom=0;rounded=0;shadow=1;strokeWidth=1;fillColor=#f8cecc;strokeColor=#b85450;gradientColor=#ffffff;swimlaneFillColor=#ffffff;" parent="fcJVb3HREh7NScvAmxeq-0" vertex="1">
          <mxGeometry x="10.208333333333332" y="40" width="40.83333333333333" height="34" as="geometry">
            <mxRectangle x="230" y="140" width="160" height="26" as="alternateBounds" />
          </mxGeometry>
        </mxCell>
        <mxCell id="fcJVb3HREh7NScvAmxeq-5" value="" style="line;html=1;strokeWidth=1;align=left;verticalAlign=middle;spacingTop=-1;spacingLeft=3;spacingRight=3;rotatable=0;labelPosition=right;points=[];portConstraint=eastwest;" parent="fcJVb3HREh7NScvAmxeq-4" vertex="1">
          <mxGeometry y="26" width="40.83333333333333" height="8" as="geometry" />
        </mxCell>
        <mxCell id="fcJVb3HREh7NScvAmxeq-6" value="" style="swimlane;fontStyle=3;align=center;verticalAlign=top;childLayout=stackLayout;horizontal=1;startSize=26;horizontalStack=0;resizeParent=1;resizeLast=0;collapsible=1;marginBottom=0;rounded=0;shadow=1;strokeWidth=1;fillColor=#fff2cc;strokeColor=#d6b656;gradientColor=#ffffff;swimlaneFillColor=#ffffff;" parent="fcJVb3HREh7NScvAmxeq-0" vertex="1">
          <mxGeometry x="112.29166666666666" y="40" width="40.83333333333333" height="34" as="geometry">
            <mxRectangle x="230" y="140" width="160" height="26" as="alternateBounds" />
          </mxGeometry>
        </mxCell>
        <mxCell id="fcJVb3HREh7NScvAmxeq-7" value="" style="line;html=1;strokeWidth=1;align=left;verticalAlign=middle;spacingTop=-1;spacingLeft=3;spacingRight=3;rotatable=0;labelPosition=right;points=[];portConstraint=eastwest;" parent="fcJVb3HREh7NScvAmxeq-6" vertex="1">
          <mxGeometry y="26" width="40.83333333333333" height="8" as="geometry" />
        </mxCell>
        <mxCell id="fcJVb3HREh7NScvAmxeq-8" value="" style="swimlane;fontStyle=3;align=center;verticalAlign=top;childLayout=stackLayout;horizontal=1;startSize=26;horizontalStack=0;resizeParent=1;resizeLast=0;collapsible=1;marginBottom=0;rounded=0;shadow=1;strokeWidth=1;fillColor=#dae8fc;strokeColor=#6c8ebf;gradientColor=#ffffff;swimlaneFillColor=#ffffff;" parent="fcJVb3HREh7NScvAmxeq-0" vertex="1">
          <mxGeometry x="214.37499999999997" y="40" width="40.83333333333333" height="34" as="geometry">
            <mxRectangle x="230" y="140" width="160" height="26" as="alternateBounds" />
          </mxGeometry>
        </mxCell>
        <mxCell id="fcJVb3HREh7NScvAmxeq-9" value="" style="line;html=1;strokeWidth=1;align=left;verticalAlign=middle;spacingTop=-1;spacingLeft=3;spacingRight=3;rotatable=0;labelPosition=right;points=[];portConstraint=eastwest;" parent="fcJVb3HREh7NScvAmxeq-8" vertex="1">
          <mxGeometry y="26" width="40.83333333333333" height="8" as="geometry" />
        </mxCell>
        <mxCell id="HtcaCpfgHtZqOqSdgNxK-37" style="edgeStyle=orthogonalEdgeStyle;rounded=0;orthogonalLoop=1;jettySize=auto;html=1;fontColor=default;endArrow=block;endFill=1;" parent="WIyWlLk6GJQsqaUBKTNV-1" source="HtcaCpfgHtZqOqSdgNxK-0" target="HtcaCpfgHtZqOqSdgNxK-31" edge="1">
          <mxGeometry relative="1" as="geometry" />
        </mxCell>
        <mxCell id="HtcaCpfgHtZqOqSdgNxK-38" style="edgeStyle=orthogonalEdgeStyle;rounded=0;orthogonalLoop=1;jettySize=auto;html=1;fontColor=default;endArrow=block;endFill=0;" parent="WIyWlLk6GJQsqaUBKTNV-1" source="HtcaCpfgHtZqOqSdgNxK-0" target="HtcaCpfgHtZqOqSdgNxK-12" edge="1">
          <mxGeometry relative="1" as="geometry">
            <Array as="points">
              <mxPoint x="370" y="450" />
              <mxPoint x="790" y="450" />
            </Array>
          </mxGeometry>
        </mxCell>
        <mxCell id="HtcaCpfgHtZqOqSdgNxK-0" value="WrStreamProviderSklearn&#xa;(WrapperScikitLearn, bf.streams.StreamProvider)" style="swimlane;fontStyle=3;align=center;verticalAlign=top;childLayout=stackLayout;horizontal=1;startSize=40;horizontalStack=0;resizeParent=1;resizeLast=0;collapsible=1;marginBottom=0;rounded=0;shadow=1;strokeWidth=1;fillColor=#dae8fc;strokeColor=#6c8ebf;swimlaneFillColor=#ffffff;gradientColor=#FFFFFF;" parent="WIyWlLk6GJQsqaUBKTNV-1" vertex="1">
          <mxGeometry x="220" y="510" width="300" height="230" as="geometry">
            <mxRectangle x="230" y="140" width="160" height="26" as="alternateBounds" />
          </mxGeometry>
        </mxCell>
        <mxCell id="HtcaCpfgHtZqOqSdgNxK-2" value="C_NAME = &#39;Stream Provider Scikit-learn&#39;" style="text;align=left;verticalAlign=top;spacingLeft=4;spacingRight=4;overflow=hidden;rotatable=0;points=[[0,0.5],[1,0.5]];portConstraint=eastwest;fontColor=default;" parent="HtcaCpfgHtZqOqSdgNxK-0" vertex="1">
          <mxGeometry y="40" width="300" height="26" as="geometry" />
        </mxCell>
        <mxCell id="HtcaCpfgHtZqOqSdgNxK-7" value="" style="line;html=1;strokeWidth=1;align=left;verticalAlign=middle;spacingTop=-1;spacingLeft=3;spacingRight=3;rotatable=0;labelPosition=right;points=[];portConstraint=eastwest;" parent="HtcaCpfgHtZqOqSdgNxK-0" vertex="1">
          <mxGeometry y="66" width="300" height="8" as="geometry" />
        </mxCell>
        <mxCell id="HtcaCpfgHtZqOqSdgNxK-8" value="__init__( p_logging = Log.C_LOG_ALLÂ )" style="text;align=left;verticalAlign=top;spacingLeft=4;spacingRight=4;overflow=hidden;rotatable=0;points=[[0,0.5],[1,0.5]];portConstraint=eastwest;fontColor=default;" parent="HtcaCpfgHtZqOqSdgNxK-0" vertex="1">
          <mxGeometry y="74" width="300" height="26" as="geometry" />
        </mxCell>
        <mxCell id="HtcaCpfgHtZqOqSdgNxK-9" value="_get_stream_list( p_mode = Mode.C_MODE_SIM,&#xa;Â  Â  Â  Â  Â  Â  Â  Â  Â  Â  Â  Â  Â  Â  p_logging = Log.C_LOG_ALL,&#xa;Â  Â  Â  Â  Â  Â  Â  Â  Â  Â  Â  Â  Â  Â  **p_kwargs ) -&gt; list" style="text;align=left;verticalAlign=top;spacingLeft=4;spacingRight=4;overflow=hidden;rotatable=0;points=[[0,0.5],[1,0.5]];portConstraint=eastwest;fontColor=default;" parent="HtcaCpfgHtZqOqSdgNxK-0" vertex="1">
          <mxGeometry y="100" width="300" height="50" as="geometry" />
        </mxCell>
        <mxCell id="HtcaCpfgHtZqOqSdgNxK-30" value="_get_stream( p_id : str = None,&#xa;Â  Â  Â  Â  Â  Â  Â  Â  Â  Â  Â  p_name : str = None,&#xa;Â  Â  Â  Â  Â  Â  Â  Â  Â  Â  Â  p_mode = Mode.C_MODE_SIM,&#xa;Â  Â  Â  Â  Â  Â  Â  Â  Â  Â  Â  p_logging = Log.C_LOG_ALL,&#xa;Â  Â  Â  Â  Â  Â  Â  Â  Â  Â  Â  Â  Â  Â  **p_kwargs ) -&gt; Stream" style="text;align=left;verticalAlign=top;spacingLeft=4;spacingRight=4;overflow=hidden;rotatable=0;points=[[0,0.5],[1,0.5]];portConstraint=eastwest;fontColor=default;" parent="HtcaCpfgHtZqOqSdgNxK-0" vertex="1">
          <mxGeometry y="150" width="300" height="80" as="geometry" />
        </mxCell>
        <mxCell id="HtcaCpfgHtZqOqSdgNxK-12" value="WrapperScikitLearn&#xa;(wrappers.Wrapper)" style="swimlane;fontStyle=3;align=center;verticalAlign=top;childLayout=stackLayout;horizontal=1;startSize=40;horizontalStack=0;resizeParent=1;resizeLast=0;collapsible=1;marginBottom=0;rounded=0;shadow=1;strokeWidth=1;fillColor=#dae8fc;strokeColor=#6c8ebf;swimlaneFillColor=#ffffff;gradientColor=#FFFFFF;" parent="WIyWlLk6GJQsqaUBKTNV-1" vertex="1">
          <mxGeometry x="640" y="160" width="300" height="230" as="geometry">
            <mxRectangle x="230" y="140" width="160" height="26" as="alternateBounds" />
          </mxGeometry>
        </mxCell>
        <mxCell id="HtcaCpfgHtZqOqSdgNxK-24" value="C_TYPE = &#39;Wrapper ScikitLearn&#39;" style="text;align=left;verticalAlign=top;spacingLeft=4;spacingRight=4;overflow=hidden;rotatable=0;points=[[0,0.5],[1,0.5]];portConstraint=eastwest;fontColor=default;" parent="HtcaCpfgHtZqOqSdgNxK-12" vertex="1">
          <mxGeometry y="40" width="300" height="26" as="geometry" />
        </mxCell>
        <mxCell id="HtcaCpfgHtZqOqSdgNxK-14" value="C_NAME = &#39;????&#39;" style="text;align=left;verticalAlign=top;spacingLeft=4;spacingRight=4;overflow=hidden;rotatable=0;points=[[0,0.5],[1,0.5]];portConstraint=eastwest;fontColor=#0000CC;" parent="HtcaCpfgHtZqOqSdgNxK-12" vertex="1">
          <mxGeometry y="66" width="300" height="26" as="geometry" />
        </mxCell>
        <mxCell id="HtcaCpfgHtZqOqSdgNxK-15" value="C_WRAPPED_PACKAGE = &#39;scikit-learn&#39;" style="text;align=left;verticalAlign=top;spacingLeft=4;spacingRight=4;overflow=hidden;rotatable=0;points=[[0,0.5],[1,0.5]];portConstraint=eastwest;fontColor=default;" parent="HtcaCpfgHtZqOqSdgNxK-12" vertex="1">
          <mxGeometry y="92" width="300" height="26" as="geometry" />
        </mxCell>
        <mxCell id="HtcaCpfgHtZqOqSdgNxK-16" value="C_MINIMUM_VERSION = &#39;0.4.0&#39;" style="text;align=left;verticalAlign=top;spacingLeft=4;spacingRight=4;overflow=hidden;rotatable=0;points=[[0,0.5],[1,0.5]];portConstraint=eastwest;fontColor=default;" parent="HtcaCpfgHtZqOqSdgNxK-12" vertex="1">
          <mxGeometry y="118" width="300" height="26" as="geometry" />
        </mxCell>
        <mxCell id="G3jBiGYehkBlFmJ0meNg-0" value="C_SCIREF_TYPE = C_SCIREF_TYPE_ONLINE" style="text;align=left;verticalAlign=top;spacingLeft=4;spacingRight=4;overflow=hidden;rotatable=0;points=[[0,0.5],[1,0.5]];portConstraint=eastwest;fontColor=default;" vertex="1" parent="HtcaCpfgHtZqOqSdgNxK-12">
          <mxGeometry y="144" width="300" height="26" as="geometry" />
        </mxCell>
        <mxCell id="HtcaCpfgHtZqOqSdgNxK-26" value="C_SCIREF_AUTHOR = &#39;Scikit-learn&#39;" style="text;align=left;verticalAlign=top;spacingLeft=4;spacingRight=4;overflow=hidden;rotatable=0;points=[[0,0.5],[1,0.5]];portConstraint=eastwest;fontColor=default;" parent="HtcaCpfgHtZqOqSdgNxK-12" vertex="1">
          <mxGeometry y="170" width="300" height="26" as="geometry" />
        </mxCell>
        <mxCell id="HtcaCpfgHtZqOqSdgNxK-27" value="C_SCIREF_URL = &#39;scikit-learn.org&#39;" style="text;align=left;verticalAlign=top;spacingLeft=4;spacingRight=4;overflow=hidden;rotatable=0;points=[[0,0.5],[1,0.5]];portConstraint=eastwest;fontColor=default;" parent="HtcaCpfgHtZqOqSdgNxK-12" vertex="1">
          <mxGeometry y="196" width="300" height="26" as="geometry" />
        </mxCell>
        <mxCell id="HtcaCpfgHtZqOqSdgNxK-19" value="" style="line;html=1;strokeWidth=1;align=left;verticalAlign=middle;spacingTop=-1;spacingLeft=3;spacingRight=3;rotatable=0;labelPosition=right;points=[];portConstraint=eastwest;" parent="HtcaCpfgHtZqOqSdgNxK-12" vertex="1">
          <mxGeometry y="222" width="300" height="8" as="geometry" />
        </mxCell>
        <mxCell id="HtcaCpfgHtZqOqSdgNxK-31" value="WrStreamSklearn&#xa;(bf.streams.Stream)" style="swimlane;fontStyle=3;align=center;verticalAlign=top;childLayout=stackLayout;horizontal=1;startSize=40;horizontalStack=0;resizeParent=1;resizeLast=0;collapsible=1;marginBottom=0;rounded=0;shadow=1;strokeWidth=1;fillColor=#dae8fc;strokeColor=#6c8ebf;swimlaneFillColor=#ffffff;gradientColor=#FFFFFF;" parent="WIyWlLk6GJQsqaUBKTNV-1" vertex="1">
          <mxGeometry x="220" y="820" width="300" height="370" as="geometry">
            <mxRectangle x="230" y="140" width="160" height="26" as="alternateBounds" />
          </mxGeometry>
        </mxCell>
        <mxCell id="HtcaCpfgHtZqOqSdgNxK-32" value="C_TYPE = &#39;Sklearn Stream&#39;" style="text;align=left;verticalAlign=top;spacingLeft=4;spacingRight=4;overflow=hidden;rotatable=0;points=[[0,0.5],[1,0.5]];portConstraint=eastwest;fontColor=default;" parent="HtcaCpfgHtZqOqSdgNxK-31" vertex="1">
          <mxGeometry y="40" width="300" height="26" as="geometry" />
        </mxCell>
        <mxCell id="HtcaCpfgHtZqOqSdgNxK-39" value="C_SCIREF_TYPE = C_SCIREF_TYPE_ONLINE" style="text;align=left;verticalAlign=top;spacingLeft=4;spacingRight=4;overflow=hidden;rotatable=0;points=[[0,0.5],[1,0.5]];portConstraint=eastwest;fontColor=default;" parent="HtcaCpfgHtZqOqSdgNxK-31" vertex="1">
          <mxGeometry y="66" width="300" height="26" as="geometry" />
        </mxCell>
        <mxCell id="HtcaCpfgHtZqOqSdgNxK-33" value="" style="line;html=1;strokeWidth=1;align=left;verticalAlign=middle;spacingTop=-1;spacingLeft=3;spacingRight=3;rotatable=0;labelPosition=right;points=[];portConstraint=eastwest;" parent="HtcaCpfgHtZqOqSdgNxK-31" vertex="1">
          <mxGeometry y="92" width="300" height="8" as="geometry" />
        </mxCell>
        <mxCell id="HtcaCpfgHtZqOqSdgNxK-34" value="__init__( p_id : int = None,&#xa;Â  Â  Â  Â  Â  Â  Â  Â p_name : str = None,&#xa;Â  Â  Â  Â  Â  Â  Â  Â p_num_instances : int = 0,&#xa;Â  Â  Â  Â  Â  Â  Â  Â p_version : str = None,&#xa;Â  Â  Â  Â  Â  Â  Â  Â p_mode : Mode.C_MODE_SIM,&#xa;Â  Â  Â  Â  Â  Â  Â  Â p_logging = Log.C_LOG_ALL,&#xa;Â  Â  Â  Â  Â  Â  Â  Â **p_kwargs )" style="text;align=left;verticalAlign=top;spacingLeft=4;spacingRight=4;overflow=hidden;rotatable=0;points=[[0,0.5],[1,0.5]];portConstraint=eastwest;fontColor=default;" parent="HtcaCpfgHtZqOqSdgNxK-31" vertex="1">
          <mxGeometry y="100" width="300" height="110" as="geometry" />
        </mxCell>
        <mxCell id="HtcaCpfgHtZqOqSdgNxK-42" value="__repr__() -&gt; str" style="text;align=left;verticalAlign=top;spacingLeft=4;spacingRight=4;overflow=hidden;rotatable=0;points=[[0,0.5],[1,0.5]];portConstraint=eastwest;fontColor=default;" parent="HtcaCpfgHtZqOqSdgNxK-31" vertex="1">
          <mxGeometry y="210" width="300" height="26" as="geometry" />
        </mxCell>
        <mxCell id="HtcaCpfgHtZqOqSdgNxK-43" value="_reset()" style="text;align=left;verticalAlign=top;spacingLeft=4;spacingRight=4;overflow=hidden;rotatable=0;points=[[0,0.5],[1,0.5]];portConstraint=eastwest;fontColor=default;" parent="HtcaCpfgHtZqOqSdgNxK-31" vertex="1">
          <mxGeometry y="236" width="300" height="26" as="geometry" />
        </mxCell>
        <mxCell id="HtcaCpfgHtZqOqSdgNxK-44" value="_setup_feature_space() -&gt; MSpace" style="text;align=left;verticalAlign=top;spacingLeft=4;spacingRight=4;overflow=hidden;rotatable=0;points=[[0,0.5],[1,0.5]];portConstraint=eastwest;fontColor=default;" parent="HtcaCpfgHtZqOqSdgNxK-31" vertex="1">
          <mxGeometry y="262" width="300" height="26" as="geometry" />
        </mxCell>
        <mxCell id="HtcaCpfgHtZqOqSdgNxK-45" value="_setup_label_space() -&gt; MSpace" style="text;align=left;verticalAlign=top;spacingLeft=4;spacingRight=4;overflow=hidden;rotatable=0;points=[[0,0.5],[1,0.5]];portConstraint=eastwest;fontColor=default;" parent="HtcaCpfgHtZqOqSdgNxK-31" vertex="1">
          <mxGeometry y="288" width="300" height="26" as="geometry" />
        </mxCell>
        <mxCell id="HtcaCpfgHtZqOqSdgNxK-46" value="_download() -&gt; bool" style="text;align=left;verticalAlign=top;spacingLeft=4;spacingRight=4;overflow=hidden;rotatable=0;points=[[0,0.5],[1,0.5]];portConstraint=eastwest;fontColor=default;" parent="HtcaCpfgHtZqOqSdgNxK-31" vertex="1">
          <mxGeometry y="314" width="300" height="26" as="geometry" />
        </mxCell>
        <mxCell id="HtcaCpfgHtZqOqSdgNxK-47" value="_get_next() -&gt; Instance" style="text;align=left;verticalAlign=top;spacingLeft=4;spacingRight=4;overflow=hidden;rotatable=0;points=[[0,0.5],[1,0.5]];portConstraint=eastwest;fontColor=default;" parent="HtcaCpfgHtZqOqSdgNxK-31" vertex="1">
          <mxGeometry y="340" width="300" height="26" as="geometry" />
        </mxCell>
        <mxCell id="y1G6CrN1t0uRpcr0E3oD-0" value="WrRiverHST2MLPro &#xa;(WrAnomalyDetectorRiver2MLPro)" style="swimlane;fontStyle=3;align=center;verticalAlign=top;childLayout=stackLayout;horizontal=1;startSize=40;horizontalStack=0;resizeParent=1;resizeLast=0;collapsible=1;marginBottom=0;rounded=0;shadow=1;strokeWidth=1;fillColor=#dae8fc;strokeColor=#6c8ebf;swimlaneFillColor=#ffffff;gradientColor=#FFFFFF;" parent="WIyWlLk6GJQsqaUBKTNV-1" vertex="1">
          <mxGeometry x="1003" y="855" width="330" height="300" as="geometry">
            <mxRectangle x="230" y="140" width="160" height="26" as="alternateBounds" />
          </mxGeometry>
        </mxCell>
        <mxCell id="y1G6CrN1t0uRpcr0E3oD-1" value="C_NAME = &#39;River One-Class SVM&#39;" style="text;align=left;verticalAlign=top;spacingLeft=4;spacingRight=4;overflow=hidden;rotatable=0;points=[[0,0.5],[1,0.5]];portConstraint=eastwest;fontColor=default;" parent="y1G6CrN1t0uRpcr0E3oD-0" vertex="1">
          <mxGeometry y="40" width="330" height="26" as="geometry" />
        </mxCell>
        <mxCell id="y1G6CrN1t0uRpcr0E3oD-2" value="_river_algo : river.anomaly.svm" style="text;align=left;verticalAlign=top;spacingLeft=4;spacingRight=4;overflow=hidden;rotatable=0;points=[[0,0.5],[1,0.5]];portConstraint=eastwest;fontColor=default;" parent="y1G6CrN1t0uRpcr0E3oD-0" vertex="1">
          <mxGeometry y="66" width="330" height="26" as="geometry" />
        </mxCell>
        <mxCell id="y1G6CrN1t0uRpcr0E3oD-3" value="" style="line;html=1;strokeWidth=1;align=left;verticalAlign=middle;spacingTop=-1;spacingLeft=3;spacingRight=3;rotatable=0;labelPosition=right;points=[];portConstraint=eastwest;" parent="y1G6CrN1t0uRpcr0E3oD-0" vertex="1">
          <mxGeometry y="92" width="330" height="8" as="geometry" />
        </mxCell>
        <mxCell id="y1G6CrN1t0uRpcr0E3oD-4" value="__init__(Â p_kernel : str = &#39;rbf&#39;,&#xa;Â  Â  Â  Â  Â  Â  Â  Â p_nu : float = 0.01,&#xa;Â  Â  Â  Â  Â  Â  Â  Â p_sizeof_instance_list : int = 100,&#xa;Â  Â  Â  Â  Â  Â  Â  Â p_name : str = None,&#xa;Â  Â  Â  Â  Â  Â  Â  Â p_range_max = StreamTask.C_RANGE_THREAD,&#xa;Â  Â  Â  Â  Â  Â  Â  Â p_ada : bool = True,&#xa;Â  Â  Â  Â  Â  Â  Â  Â p_duplicate_data : bool = Fasle,&#xa;Â  Â  Â  Â  Â  Â  Â  Â p_visualize : bool = False,&#xa;Â  Â  Â  Â  Â  Â  Â  Â p_logging = Log.C_LOG_ALL;&#xa;Â  Â  Â  Â  Â  Â  Â  Â **p_kwargs )" style="text;align=left;verticalAlign=top;spacingLeft=4;spacingRight=4;overflow=hidden;rotatable=0;points=[[0,0.5],[1,0.5]];portConstraint=eastwest;fontColor=default;" parent="y1G6CrN1t0uRpcr0E3oD-0" vertex="1">
          <mxGeometry y="100" width="330" height="150" as="geometry" />
        </mxCell>
        <mxCell id="y1G6CrN1t0uRpcr0E3oD-21" value="_run( p_inst_new : list[Instance],&#xa;Â Â Â Â Â Â Â Â  p_inst_del : list )" style="text;align=left;verticalAlign=top;spacingLeft=4;spacingRight=4;overflow=hidden;rotatable=0;points=[[0,0.5],[1,0.5]];portConstraint=eastwest;fontColor=default;" parent="y1G6CrN1t0uRpcr0E3oD-0" vertex="1">
          <mxGeometry y="250" width="330" height="34" as="geometry" />
        </mxCell>
        <mxCell id="y1G6CrN1t0uRpcr0E3oD-6" value="WrRiverOneClassSVM2MLPro&#xa;(WrAnomalyDetectorRiver2MLPro)" style="swimlane;fontStyle=3;align=center;verticalAlign=top;childLayout=stackLayout;horizontal=1;startSize=40;horizontalStack=0;resizeParent=1;resizeLast=0;collapsible=1;marginBottom=0;rounded=0;shadow=1;strokeWidth=1;fillColor=#dae8fc;strokeColor=#6c8ebf;swimlaneFillColor=#ffffff;gradientColor=#FFFFFF;" parent="WIyWlLk6GJQsqaUBKTNV-1" vertex="1">
          <mxGeometry x="640" y="850" width="300" height="300" as="geometry">
            <mxRectangle x="230" y="140" width="160" height="26" as="alternateBounds" />
          </mxGeometry>
        </mxCell>
        <mxCell id="y1G6CrN1t0uRpcr0E3oD-7" value="C_NAME = &#39;River Half-Space Tree&#39;" style="text;align=left;verticalAlign=top;spacingLeft=4;spacingRight=4;overflow=hidden;rotatable=0;points=[[0,0.5],[1,0.5]];portConstraint=eastwest;fontColor=default;" parent="y1G6CrN1t0uRpcr0E3oD-6" vertex="1">
          <mxGeometry y="40" width="300" height="26" as="geometry" />
        </mxCell>
        <mxCell id="y1G6CrN1t0uRpcr0E3oD-8" value="_river_algo : river.anomaly.hst" style="text;align=left;verticalAlign=top;spacingLeft=4;spacingRight=4;overflow=hidden;rotatable=0;points=[[0,0.5],[1,0.5]];portConstraint=eastwest;fontColor=default;" parent="y1G6CrN1t0uRpcr0E3oD-6" vertex="1">
          <mxGeometry y="66" width="300" height="26" as="geometry" />
        </mxCell>
        <mxCell id="y1G6CrN1t0uRpcr0E3oD-9" value="" style="line;html=1;strokeWidth=1;align=left;verticalAlign=middle;spacingTop=-1;spacingLeft=3;spacingRight=3;rotatable=0;labelPosition=right;points=[];portConstraint=eastwest;" parent="y1G6CrN1t0uRpcr0E3oD-6" vertex="1">
          <mxGeometry y="92" width="300" height="8" as="geometry" />
        </mxCell>
        <mxCell id="y1G6CrN1t0uRpcr0E3oD-10" value="__init__(Â p_no_trees : int = 5,&#xa;Â  Â  Â  Â  Â  Â  Â  Â p_height : int = 3,&#xa;Â  Â  Â  Â  Â  Â  Â  Â p_sizeof_instance_list : int = 100,&#xa;Â  Â  Â  Â  Â  Â  Â  Â p_name : str = None,&#xa;Â  Â  Â  Â  Â  Â  Â  Â p_range_max = StreamTask.C_RANGE_THREAD,&#xa;Â  Â  Â  Â  Â  Â  Â  Â p_ada : bool = True,&#xa;Â  Â  Â  Â  Â  Â  Â  Â p_duplicate_data : bool = Fasle,&#xa;Â  Â  Â  Â  Â  Â  Â  Â p_visualize : bool = False,&#xa;Â  Â  Â  Â  Â  Â  Â  Â p_logging = Log.C_LOG_ALL;&#xa;Â  Â  Â  Â  Â  Â  Â  Â **p_kwargs )" style="text;align=left;verticalAlign=top;spacingLeft=4;spacingRight=4;overflow=hidden;rotatable=0;points=[[0,0.5],[1,0.5]];portConstraint=eastwest;fontColor=#000000;fillColor=#FFFFFF;labelBackgroundColor=default;" parent="y1G6CrN1t0uRpcr0E3oD-6" vertex="1">
          <mxGeometry y="100" width="300" height="150" as="geometry" />
        </mxCell>
        <mxCell id="y1G6CrN1t0uRpcr0E3oD-11" value="_run( p_inst_new : list[Instance],&#xa;Â Â Â Â Â Â Â Â  p_inst_del : list )" style="text;align=left;verticalAlign=top;spacingLeft=4;spacingRight=4;overflow=hidden;rotatable=0;points=[[0,0.5],[1,0.5]];portConstraint=eastwest;fontColor=default;" parent="y1G6CrN1t0uRpcr0E3oD-6" vertex="1">
          <mxGeometry y="250" width="300" height="34" as="geometry" />
        </mxCell>
        <mxCell id="y1G6CrN1t0uRpcr0E3oD-12" value="WrAnomalyDetectorRiver2MLPro&#xa;(WrapperRiver, AnomalyDetector)" style="swimlane;fontStyle=3;align=center;verticalAlign=top;childLayout=stackLayout;horizontal=1;startSize=40;horizontalStack=0;resizeParent=1;resizeLast=0;collapsible=1;marginBottom=0;rounded=0;shadow=1;strokeWidth=1;fillColor=#dae8fc;strokeColor=#6c8ebf;swimlaneFillColor=#ffffff;gradientColor=#FFFFFF;" parent="WIyWlLk6GJQsqaUBKTNV-1" vertex="1">
          <mxGeometry x="868" y="510" width="300" height="204" as="geometry">
            <mxRectangle x="640" y="160" width="160" height="26" as="alternateBounds" />
          </mxGeometry>
        </mxCell>
        <mxCell id="y1G6CrN1t0uRpcr0E3oD-13" value="C_TYPE = &#39;River Anomaly Detector&#39;" style="text;align=left;verticalAlign=top;spacingLeft=4;spacingRight=4;overflow=hidden;rotatable=0;points=[[0,0.5],[1,0.5]];portConstraint=eastwest;fontColor=default;" parent="y1G6CrN1t0uRpcr0E3oD-12" vertex="1">
          <mxGeometry y="40" width="300" height="26" as="geometry" />
        </mxCell>
        <mxCell id="y1G6CrN1t0uRpcr0E3oD-14" value="C_NAME = &#39;River Anomlay Detector&#39;" style="text;align=left;verticalAlign=top;spacingLeft=4;spacingRight=4;overflow=hidden;rotatable=0;points=[[0,0.5],[1,0.5]];portConstraint=eastwest;fontColor=#0000CC;" parent="y1G6CrN1t0uRpcr0E3oD-12" vertex="1">
          <mxGeometry y="66" width="300" height="26" as="geometry" />
        </mxCell>
        <mxCell id="y1G6CrN1t0uRpcr0E3oD-15" value="C_WRAPPED_PACKAGE = &#39;river&#39;" style="text;align=left;verticalAlign=top;spacingLeft=4;spacingRight=4;overflow=hidden;rotatable=0;points=[[0,0.5],[1,0.5]];portConstraint=eastwest;fontColor=default;" parent="y1G6CrN1t0uRpcr0E3oD-12" vertex="1">
          <mxGeometry y="92" width="300" height="26" as="geometry" />
        </mxCell>
        <mxCell id="y1G6CrN1t0uRpcr0E3oD-16" value="C_MINIMUM_VERSION = &#39;0.15.0&#39;" style="text;align=left;verticalAlign=top;spacingLeft=4;spacingRight=4;overflow=hidden;rotatable=0;points=[[0,0.5],[1,0.5]];portConstraint=eastwest;fontColor=default;" parent="y1G6CrN1t0uRpcr0E3oD-12" vertex="1">
          <mxGeometry y="118" width="300" height="26" as="geometry" />
        </mxCell>
        <mxCell id="y1G6CrN1t0uRpcr0E3oD-18" value="C_SCIREF_AUTHOR = &#39;River&#39;" style="text;align=left;verticalAlign=top;spacingLeft=4;spacingRight=4;overflow=hidden;rotatable=0;points=[[0,0.5],[1,0.5]];portConstraint=eastwest;fontColor=default;" parent="y1G6CrN1t0uRpcr0E3oD-12" vertex="1">
          <mxGeometry y="144" width="300" height="26" as="geometry" />
        </mxCell>
        <mxCell id="y1G6CrN1t0uRpcr0E3oD-19" value="C_SCIREF_URL = &#39;riverml.xyz&#39;" style="text;align=left;verticalAlign=top;spacingLeft=4;spacingRight=4;overflow=hidden;rotatable=0;points=[[0,0.5],[1,0.5]];portConstraint=eastwest;fontColor=default;" parent="y1G6CrN1t0uRpcr0E3oD-12" vertex="1">
          <mxGeometry y="170" width="300" height="26" as="geometry" />
        </mxCell>
        <mxCell id="y1G6CrN1t0uRpcr0E3oD-20" value="" style="line;html=1;strokeWidth=1;align=left;verticalAlign=middle;spacingTop=-1;spacingLeft=3;spacingRight=3;rotatable=0;labelPosition=right;points=[];portConstraint=eastwest;" parent="y1G6CrN1t0uRpcr0E3oD-12" vertex="1">
          <mxGeometry y="196" width="300" height="8" as="geometry" />
        </mxCell>
      </root>
    </mxGraphModel>
  </diagram>
</mxfile>
